<svg width="300" height="208" viewBox="0 0 300 208" fill="none" xmlns="http://www.w3.org/2000/svg">
<g clip-path="url(#clip0)">
<path opacity="0.18" d="M1.94789 174.844C1.19786 175.466 0.415065 176.14 0.127433 177.068C-0.360449 178.587 0.626237 180.17 1.71487 181.336C7.35464 187.376 16.2603 188.788 24.4778 189.691C61.5865 193.693 99.0007 194 136.17 190.609C135.865 190.837 135.582 191.092 135.322 191.37C130.355 196.598 133.865 205.293 141.074 205.846C187.183 209.396 233.67 205.082 279.793 200.749C283.488 200.385 286.445 193.787 289.525 191.716C292.605 189.644 294.506 185.326 292.667 182.107C290.217 177.822 282.993 177.866 281.209 173.264C279.454 168.738 284.468 164.653 286.154 160.105C288.371 154.12 284.224 147.286 278.591 144.293C272.959 141.3 266.289 141.187 259.906 141.169C187.932 140.957 115.994 144.378 44.3645 151.418C35.9904 152.237 30.2669 152.347 23.553 156.85C15.9108 161.977 9.01125 168.967 1.94789 174.844Z" fill="#282E38"/>
<path opacity="0.18" d="M226.301 200.407C227.888 200.09 229.629 199.769 231.056 200.534C231.784 200.924 232.359 201.564 233.117 201.885C234.518 202.478 236.098 201.852 237.569 201.459C243.158 199.962 249.02 202.005 254.798 202.274C260.285 202.533 265.721 201.182 271.033 199.839C272.42 199.475 274.135 198.71 274.015 197.29C273.84 195.251 270.44 195.47 269.314 193.769L279.003 188.672C280.095 188.108 281.238 187.449 281.65 186.309C282.13 184.973 281.337 183.44 280.146 182.668C278.956 181.896 277.485 181.725 276.065 181.689C269.413 181.525 262.987 183.841 256.477 185.242C248.967 186.859 241.248 187.273 233.608 186.469C231.849 186.28 230.069 186.032 228.332 186.335C223.923 187.106 220.253 190.904 216.423 193.005C213.325 194.705 210.044 196.034 206.764 197.334C203.123 198.79 196.125 200.072 193.693 203.265C196.995 204.779 202.475 203.498 206.035 203.217C212.84 202.68 219.607 201.741 226.301 200.407Z" fill="#282E38"/>
<path d="M244.163 0H94.9659V97.8458H244.163V0Z" fill="#282E38"/>
<path d="M244.163 0H94.9659V97.8458H244.163V0Z" fill="url(#paint0_linear)"/>
<path d="M94.9659 19.2458H206.749L221.203 90.797L94.103 34.4612L94.9659 19.2458Z" fill="url(#paint1_linear)"/>
<path d="M209.261 67.4041V149.609C209.261 151.347 208.571 153.014 207.342 154.243C206.113 155.472 204.446 156.162 202.708 156.162H26.1709C24.4327 156.162 22.7658 155.472 21.5367 154.243C20.3077 153.014 19.6172 151.347 19.6172 149.609V46.0793C19.6172 44.3412 20.3077 42.6743 21.5367 41.4452C22.7658 40.2162 24.4327 39.5257 26.1709 39.5257H72.5087C74.3835 39.5257 76.1893 40.2333 77.565 41.507C78.9406 42.7808 79.7849 44.5268 79.9289 46.3961L80.3986 52.5856C80.571 54.8361 81.5869 56.9385 83.2428 58.4722C84.8987 60.006 87.0726 60.858 89.3297 60.8578H202.719C204.261 60.8599 205.753 61.4058 206.932 62.3993C208.111 63.3929 208.903 64.7706 209.167 66.29C209.229 66.6581 209.261 67.0308 209.261 67.4041Z" fill="#282E38"/>
<path d="M209.261 67.4041V149.609C209.261 151.347 208.571 153.014 207.342 154.243C206.113 155.472 204.446 156.162 202.708 156.162H26.1709C24.4327 156.162 22.7658 155.472 21.5367 154.243C20.3077 153.014 19.6172 151.347 19.6172 149.609V46.0793C19.6172 44.3412 20.3077 42.6743 21.5367 41.4452C22.7658 40.2162 24.4327 39.5257 26.1709 39.5257H72.5087C74.3835 39.5257 76.1893 40.2333 77.565 41.507C78.9406 42.7808 79.7849 44.5268 79.9289 46.3961L80.3986 52.5856C80.571 54.8361 81.5869 56.9385 83.2428 58.4722C84.8987 60.006 87.0726 60.858 89.3297 60.8578H202.719C204.261 60.8599 205.753 61.4058 206.932 62.3993C208.111 63.3929 208.903 64.7706 209.167 66.29C209.229 66.6581 209.261 67.0308 209.261 67.4041Z" fill="url(#paint2_linear)"/>
<path d="M91.9075 60.8578H89.3297C87.0726 60.858 84.8987 60.006 83.2428 58.4723C81.5869 56.9385 80.571 54.8361 80.3986 52.5857L79.9289 46.3961C79.8931 45.9033 79.8077 45.4154 79.674 44.9398H83.3149C85.19 44.9389 86.9962 45.6462 88.3721 46.9201C89.7479 48.194 90.5919 49.9406 90.7351 51.8102L91.2084 57.9997C91.2811 58.9846 91.5174 59.9505 91.9075 60.8578V60.8578Z" fill="#222A72"/>
<path d="M209.261 67.4042V149.609C209.261 151.347 208.571 153.014 207.342 154.243C206.113 155.472 204.446 156.162 202.708 156.162H30.5363C30.4739 155.795 30.4423 155.424 30.4417 155.052V51.4934C30.4417 49.7553 31.1321 48.0883 32.3612 46.8593C33.5902 45.6302 35.2572 44.9398 36.9953 44.9398H79.674C79.8077 45.4154 79.8931 45.9033 79.9289 46.3961L80.3986 52.5857C80.5711 54.8361 81.5869 56.9385 83.2428 58.4723C84.8987 60.006 87.0726 60.858 89.3297 60.8578H91.9075C92.5988 62.4693 93.7474 63.8428 95.2112 64.8083C96.6749 65.7738 98.3897 66.289 100.143 66.2901H209.167C209.229 66.6581 209.261 67.0308 209.261 67.4042Z" fill="#282E38"/>
<path d="M209.261 64.6917V146.885C209.261 148.623 208.571 150.29 207.342 151.519C206.113 152.748 204.446 153.439 202.708 153.439H30.5363C30.4739 153.072 30.4423 152.701 30.4417 152.328V48.7882C30.4417 47.0501 31.1321 45.3831 32.3612 44.1541C33.5902 42.925 35.2572 42.2346 36.9953 42.2346H79.674C79.8058 42.7106 79.8912 43.1984 79.9289 43.6909L80.3986 49.8805C80.571 52.1313 81.5867 54.2341 83.2425 55.7684C84.8983 57.3027 87.0723 58.1555 89.3297 58.1563H91.9075C92.5988 59.7678 93.7474 61.1412 95.2112 62.1067C96.6749 63.0722 98.3897 63.5874 100.143 63.5885H209.167C209.229 63.9529 209.261 64.3219 209.261 64.6917V64.6917Z" fill="url(#paint3_linear)"/>
<path d="M200.079 21.5396V60.8614H89.3297C87.0723 60.8607 84.8983 60.0079 83.2425 58.4736C81.5867 56.9393 80.571 54.8365 80.3985 52.5856L79.9289 46.3961C79.7857 44.5265 78.9417 42.78 77.5658 41.506C76.19 40.2321 74.3837 39.5248 72.5087 39.5257H40.6252V21.5396H200.079Z" fill="#282E38"/>
<path d="M200.079 21.5396V60.8614H89.3297C87.0723 60.8607 84.8983 60.0079 83.2425 58.4736C81.5867 56.9393 80.571 54.8365 80.3985 52.5856L79.9289 46.3961C79.7857 44.5265 78.9417 42.78 77.5658 41.506C76.19 40.2321 74.3837 39.5248 72.5087 39.5257H40.6252V21.5396H200.079Z" fill="url(#paint4_linear)"/>
<path d="M94.194 35.7501V60.8724H91.9075V35.7501C91.907 35.6005 91.936 35.4522 91.9928 35.3137C92.0497 35.1753 92.1332 35.0494 92.2387 34.9432C92.3442 34.8371 92.4695 34.7527 92.6076 34.695C92.7457 34.6373 92.8938 34.6073 93.0435 34.6069V34.6069C93.1922 34.6054 93.3397 34.6333 93.4776 34.6889C93.6156 34.7444 93.7412 34.8266 93.8473 34.9308C93.9535 35.0349 94.0381 35.1589 94.0964 35.2958C94.1546 35.4326 94.1853 35.5796 94.1867 35.7283V35.7283L94.194 35.7501Z" fill="url(#paint5_linear)"/>
<path d="M105.222 35.7501V60.8724H102.936V35.7501C102.936 35.4469 103.056 35.1561 103.271 34.9417C103.485 34.7273 103.776 34.6069 104.079 34.6069C104.382 34.6069 104.673 34.7273 104.887 34.9417C105.102 35.1561 105.222 35.4469 105.222 35.7501V35.7501Z" fill="url(#paint6_linear)"/>
<path d="M116.251 35.7501V60.8724H113.96V35.7501C113.96 35.4469 114.081 35.1561 114.295 34.9417C114.51 34.7273 114.8 34.6069 115.104 34.6069C115.407 34.6069 115.698 34.7273 115.912 34.9417C116.126 35.1561 116.247 35.4469 116.247 35.7501V35.7501H116.251Z" fill="url(#paint7_linear)"/>
<path d="M127.279 35.7501V60.8724H124.992V35.7501C124.992 35.6005 125.021 35.4522 125.078 35.3137C125.135 35.1753 125.218 35.0494 125.324 34.9432C125.429 34.8371 125.554 34.7527 125.693 34.695C125.831 34.6373 125.979 34.6073 126.128 34.6069C126.432 34.6081 126.723 34.7269 126.94 34.9382C127.156 35.1533 127.278 35.4453 127.279 35.7501V35.7501Z" fill="url(#paint8_linear)"/>
<path d="M138.307 35.7501V60.8724H136.021V35.7501C136.021 35.4469 136.141 35.1561 136.356 34.9417C136.57 34.7273 136.861 34.6069 137.164 34.6069C137.467 34.6069 137.758 34.7273 137.972 34.9417C138.187 35.1561 138.307 35.4469 138.307 35.7501V35.7501Z" fill="url(#paint9_linear)"/>
<path d="M149.336 35.7501V60.8724H147.049V35.7501C147.048 35.6003 147.077 35.4518 147.133 35.3132C147.19 35.1745 147.274 35.0484 147.379 34.9422C147.485 34.8359 147.61 34.7516 147.749 34.694C147.887 34.6365 148.035 34.6069 148.185 34.6069V34.6069C148.488 34.6081 148.779 34.7269 148.997 34.9382C149.104 35.0445 149.189 35.1709 149.247 35.3103C149.306 35.4496 149.336 35.5991 149.336 35.7501V35.7501Z" fill="url(#paint10_linear)"/>
<path d="M160.364 35.7501V60.8724H158.077V35.7501C158.077 35.4469 158.198 35.1561 158.412 34.9417C158.627 34.7273 158.917 34.6069 159.221 34.6069C159.524 34.6069 159.815 34.7273 160.029 34.9417C160.243 35.1561 160.364 35.4469 160.364 35.7501V35.7501Z" fill="url(#paint11_linear)"/>
<path d="M171.392 35.7501V60.8724H169.106V35.7501C169.106 35.6 169.135 35.4513 169.193 35.3126C169.25 35.1739 169.334 35.0479 169.441 34.9417C169.547 34.8356 169.673 34.7513 169.811 34.6939C169.95 34.6364 170.099 34.6069 170.249 34.6069C170.399 34.6069 170.548 34.6364 170.686 34.6939C170.825 34.7513 170.951 34.8356 171.057 34.9417C171.163 35.0479 171.248 35.1739 171.305 35.3126C171.363 35.4513 171.392 35.6 171.392 35.7501V35.7501Z" fill="url(#paint12_linear)"/>
<path d="M223.188 85.5177C221.921 86.2167 220.61 86.8976 219.183 87.116C215.542 87.6731 212.05 85.1062 208.347 85.0844C206.79 85.1011 205.27 85.561 203.965 86.4102C202.66 87.2594 201.624 88.4628 200.978 89.8795C204.353 90.4948 207.816 90.3819 211.246 90.2691L230.237 89.6319C231.624 89.5846 233.182 89.4608 234.078 88.4049C234.646 87.7386 234.806 86.8357 235.17 86.0383C235.782 84.6948 236.914 83.6681 237.719 82.4265C238.611 81.0466 239.539 78.4944 238.96 76.8305C238.141 74.5367 235.931 77.2637 234.693 78.1703C231.02 80.8646 227.177 83.3188 223.188 85.5177V85.5177Z" fill="#282E38"/>
<path d="M223.188 85.5177C221.921 86.2167 220.61 86.8976 219.183 87.116C215.542 87.6731 212.05 85.1062 208.347 85.0844C206.79 85.1011 205.27 85.561 203.965 86.4102C202.66 87.2594 201.624 88.4628 200.978 89.8795C204.353 90.4948 207.816 90.3819 211.246 90.2691L230.237 89.6319C231.624 89.5846 233.182 89.4608 234.078 88.4049C234.646 87.7386 234.806 86.8357 235.17 86.0383C235.782 84.6948 236.914 83.6681 237.719 82.4265C238.611 81.0466 239.539 78.4944 238.96 76.8305C238.141 74.5367 235.931 77.2637 234.693 78.1703C231.02 80.8646 227.177 83.3188 223.188 85.5177V85.5177Z" fill="url(#paint13_linear)"/>
<path d="M240.682 43.0028C240.682 44.0441 241.41 44.9471 241.611 45.9665C241.891 47.31 241.279 48.8173 241.938 50.0188C242.667 51.3587 244.487 51.5007 245.903 52.1014C246.986 52.5907 247.888 53.4071 248.482 54.4358C249.077 55.4645 249.333 56.6536 249.217 57.8359C249.142 58.1156 249.171 58.4127 249.297 58.6733C249.402 58.7838 249.529 58.8711 249.67 58.9294C249.811 58.9877 249.963 59.0158 250.116 59.0119L253.662 59.376C254.073 59.4594 254.5 59.4202 254.889 59.2631C255.243 59.0263 255.507 58.6776 255.639 58.2728C256.662 55.8188 256.477 53.0408 257.096 50.4521C257.889 47.0224 260.041 43.9895 260.594 40.5124C260.937 38.3109 260.62 36.0571 259.684 34.0352C259.102 32.7828 258.228 31.5958 256.972 31.0242C256.078 30.6783 255.127 30.5041 254.168 30.5108C250.567 30.3361 245.616 30.7584 244.622 35.0438C244.29 36.5001 244.52 37.6361 243.57 38.9177C242.619 40.1993 240.693 41.1787 240.682 43.0028Z" fill="url(#paint14_linear)"/>
<path d="M242.965 28.4792C242.663 30.7184 244.487 32.6481 246.286 34.0098C248.084 35.3715 254.041 38.1932 254.423 39.9408C254.805 41.6884 254.685 43.5016 254.561 45.2856C254.824 46.3779 256.538 43.2395 256.873 43.1229C258.155 42.2491 258.508 43.5526 258.614 44.0259C258.697 44.4891 258.628 44.9667 258.417 45.3876C257.882 46.702 255.676 49.8696 256.327 52.2653C258.297 52.6294 258.894 47.6777 260.696 46.8403C263.245 45.6643 265.43 44.5029 266.158 41.7977C267.013 38.59 267.745 35.011 266.187 32.0764C265.953 31.6027 265.62 31.1844 265.211 30.8494C264.847 30.5764 264.428 30.4052 264.05 30.1649C263.019 29.5205 262.371 28.4319 261.607 27.4889C259.778 25.2377 257.213 23.7035 254.365 23.1562C251.962 22.7047 249.013 22.9159 246.85 24.1574C245.292 25.0531 243.213 26.6041 242.965 28.4792Z" fill="#3F3D56"/>
<path d="M261.293 98.2172C262.166 96.4541 262.944 94.6456 263.624 92.7995C266.194 85.4376 265.561 77.3912 264.778 69.6324C264.702 68.4553 264.5 67.2897 264.177 66.1553C263.693 64.8274 263.031 63.5709 262.211 62.4197C261.075 60.6915 259.886 58.9924 258.643 57.3225C258.326 56.9001 257.966 56.4523 257.452 56.3285C257.086 56.2733 256.711 56.307 256.36 56.4268L253.367 57.1878C250.695 57.8686 247.797 58.6987 246.209 60.9561C241.334 67.8738 237.049 75.7964 234.38 83.8356C231.953 91.1635 229.525 98.4927 227.098 105.823C226.144 108.692 225.245 112.031 226.883 114.561C228.817 117.547 233.073 117.678 236.612 117.474L242.911 117.11C245.561 116.961 248.488 116.691 250.323 114.772C250.883 114.135 251.365 113.434 251.758 112.682C254.998 107.043 258.505 104.13 261.293 98.2172Z" fill="#282E38"/>
<path d="M261.293 98.2172C262.166 96.4541 262.944 94.6456 263.624 92.7995C266.194 85.4376 265.561 77.3912 264.778 69.6324C264.702 68.4553 264.5 67.2897 264.177 66.1553C263.693 64.8274 263.031 63.5709 262.211 62.4197C261.075 60.6915 259.886 58.9924 258.643 57.3225C258.326 56.9001 257.966 56.4523 257.452 56.3285C257.086 56.2733 256.711 56.307 256.36 56.4268L253.367 57.1878C250.695 57.8686 247.797 58.6987 246.209 60.9561C241.334 67.8738 237.049 75.7964 234.38 83.8356C231.953 91.1635 229.525 98.4927 227.098 105.823C226.144 108.692 225.245 112.031 226.883 114.561C228.817 117.547 233.073 117.678 236.612 117.474L242.911 117.11C245.561 116.961 248.488 116.691 250.323 114.772C250.883 114.135 251.365 113.434 251.758 112.682C254.998 107.043 258.505 104.13 261.293 98.2172Z" fill="url(#paint15_linear)"/>
<path d="M300 89.1295H178.317V164.649H300V89.1295Z" fill="#282E38"/>
<path d="M300 89.1295H178.317V164.649H300V89.1295Z" fill="url(#paint16_linear)"/>
<path d="M245.295 134.328C245.841 134.5 246.416 134.557 246.985 134.495C246.664 135.252 247.713 135.919 248.539 135.762C249.366 135.606 250.039 135.034 250.855 134.95C251.292 134.91 251.751 135.009 252.162 134.848C252.523 134.674 252.822 134.393 253.018 134.044C253.91 132.726 254.474 131.215 254.998 129.722C256.225 126.321 257.117 122.779 258.683 119.527C264.144 108.175 264.745 91.6489 264.658 89.0639C263.729 89.093 260.919 89.1877 260.005 89.3515C259.697 89.384 259.403 89.4929 259.149 89.6683C258.911 89.8922 258.74 90.1786 258.657 90.4948C257.711 93.2255 257.955 96.2001 257.656 99.0764C256.946 105.965 253.167 112.122 251.27 118.781C250.455 121.646 249.985 124.934 248.041 127.301C247.589 127.851 246.806 128.393 246.504 129.023C246.1 129.878 246.683 130.21 246.635 131.062C246.613 131.393 244.88 134.197 245.295 134.328Z" fill="url(#paint17_linear)"/>
<path d="M204.546 94.4561C205.509 94.5859 206.488 94.5027 207.415 94.2121C208.338 93.9194 209.298 93.7612 210.266 93.7425C211.056 93.7752 212.003 93.9609 212.513 93.3565C213.179 92.5628 212.4 91.1501 213.106 90.3928C213.281 90.2035 213.525 90.0906 213.7 89.905C213.796 89.821 213.858 89.7038 213.873 89.5764C213.888 89.4491 213.855 89.3208 213.78 89.2168C213.655 89.1249 213.501 89.0798 213.346 89.0894C210.237 88.9206 207.12 88.9742 204.018 89.2496C203.236 89.3188 202.34 89.4644 201.921 90.1343C200.924 91.7218 203.064 94.1575 204.546 94.4561Z" fill="url(#paint18_linear)"/>
<path d="M202.07 153.756C201.768 153.754 201.478 153.633 201.264 153.419C201.05 153.205 200.929 152.915 200.927 152.612V102.393C200.929 102.091 201.05 101.801 201.264 101.587C201.478 101.373 201.768 101.252 202.07 101.25V101.25C202.22 101.25 202.368 101.279 202.507 101.335C202.645 101.392 202.771 101.476 202.877 101.581C202.984 101.687 203.068 101.812 203.126 101.95C203.183 102.088 203.213 102.236 203.214 102.386V102.386V152.631C203.208 152.93 203.085 153.216 202.871 153.426C202.658 153.636 202.37 153.755 202.07 153.756Z" fill="url(#paint19_linear)"/>
<path d="M213.11 153.756C212.807 153.754 212.517 153.633 212.303 153.419C212.089 153.205 211.968 152.915 211.966 152.612V102.393C211.968 102.091 212.089 101.801 212.303 101.587C212.517 101.373 212.807 101.252 213.11 101.25C213.259 101.25 213.408 101.279 213.546 101.335C213.685 101.392 213.81 101.476 213.917 101.581C214.023 101.687 214.107 101.812 214.165 101.95C214.223 102.088 214.252 102.236 214.253 102.386V102.386V152.631C214.247 152.93 214.124 153.216 213.911 153.426C213.697 153.636 213.41 153.755 213.11 153.756Z" fill="url(#paint20_linear)"/>
<path d="M224.138 153.756C223.835 153.754 223.546 153.633 223.332 153.419C223.118 153.205 222.997 152.915 222.995 152.612V102.393C222.997 102.091 223.118 101.801 223.332 101.587C223.546 101.373 223.835 101.252 224.138 101.25V101.25C224.288 101.25 224.436 101.279 224.574 101.335C224.713 101.392 224.839 101.476 224.945 101.581C225.051 101.687 225.135 101.812 225.193 101.95C225.251 102.088 225.281 102.236 225.281 102.386V102.386V152.631C225.276 152.93 225.153 153.216 224.939 153.426C224.725 153.636 224.438 153.755 224.138 153.756V153.756Z" fill="url(#paint21_linear)"/>
<path d="M235.166 153.756C234.864 153.754 234.574 153.633 234.36 153.419C234.146 153.205 234.025 152.915 234.023 152.612V102.393C234.025 102.091 234.146 101.801 234.36 101.587C234.574 101.373 234.864 101.252 235.166 101.25V101.25C235.316 101.25 235.464 101.279 235.603 101.335C235.741 101.392 235.867 101.476 235.973 101.581C236.079 101.687 236.164 101.812 236.221 101.95C236.279 102.088 236.309 102.236 236.31 102.386V102.386V152.631C236.304 152.93 236.181 153.216 235.967 153.426C235.754 153.636 235.466 153.755 235.166 153.756V153.756Z" fill="url(#paint22_linear)"/>
<path d="M246.195 153.756C245.892 153.754 245.602 153.633 245.388 153.419C245.174 153.205 245.053 152.915 245.051 152.612V152.612V102.393C245.051 102.244 245.08 102.095 245.137 101.957C245.194 101.818 245.277 101.693 245.383 101.586C245.488 101.48 245.613 101.396 245.752 101.338C245.89 101.28 246.038 101.251 246.187 101.25C246.49 101.252 246.78 101.373 246.994 101.587C247.208 101.801 247.329 102.091 247.331 102.393V102.393V152.612C247.329 152.914 247.209 153.202 246.996 153.416C246.784 153.63 246.496 153.752 246.195 153.756V153.756Z" fill="url(#paint23_linear)"/>
<path d="M257.223 153.756C256.92 153.754 256.631 153.633 256.417 153.419C256.203 153.205 256.082 152.915 256.08 152.612V152.612V102.393C256.079 102.244 256.108 102.095 256.165 101.957C256.222 101.818 256.305 101.693 256.411 101.586C256.516 101.48 256.642 101.396 256.78 101.338C256.918 101.28 257.066 101.251 257.216 101.25V101.25C257.518 101.252 257.808 101.373 258.022 101.587C258.236 101.801 258.357 102.091 258.359 102.393V102.393V152.612C258.357 152.914 258.237 153.202 258.025 153.416C257.812 153.63 257.524 153.752 257.223 153.756Z" fill="url(#paint24_linear)"/>
<path d="M268.251 153.756C267.949 153.754 267.659 153.633 267.445 153.419C267.231 153.205 267.11 152.915 267.108 152.612V152.612V102.393C267.108 102.244 267.137 102.095 267.193 101.957C267.25 101.818 267.334 101.693 267.439 101.586C267.545 101.48 267.67 101.396 267.808 101.338C267.946 101.28 268.094 101.251 268.244 101.25C268.547 101.252 268.836 101.373 269.05 101.587C269.264 101.801 269.385 102.091 269.387 102.393V102.393V152.612C269.385 152.914 269.265 153.202 269.053 153.416C268.84 153.63 268.553 153.752 268.251 153.756V153.756Z" fill="url(#paint25_linear)"/>
<path d="M279.28 101.25C279.582 101.252 279.872 101.373 280.086 101.587C280.3 101.801 280.421 102.091 280.423 102.393V152.612C280.421 152.915 280.3 153.205 280.086 153.419C279.872 153.633 279.582 153.754 279.28 153.756V153.756C278.977 153.754 278.687 153.633 278.473 153.419C278.259 153.205 278.138 152.915 278.136 152.612V102.393C278.138 102.091 278.259 101.801 278.473 101.587C278.687 101.373 278.977 101.252 279.28 101.25V101.25Z" fill="url(#paint26_linear)"/>
<path d="M249.766 83.5552C249.371 93.507 248.61 103.431 247.484 113.327C247.261 115.3 247.028 117.332 247.564 119.243C247.782 120.03 248.292 122.251 248.812 122.884C249.541 123.805 250.425 123.015 251.59 123.139C253.327 123.325 253.975 124.315 254.987 122.892C256 121.468 257.474 117.671 257.9 115.974C261.081 102.594 261.961 88.7695 260.503 75.0937C260.274 72.931 259.968 70.7246 258.982 68.7877C257.995 66.8507 256.189 65.1977 254.026 64.9538C250.68 64.5897 248.67 67.4114 248.929 70.3424C249.337 74.8389 249.938 79.0077 249.766 83.5552Z" fill="#282E38"/>
<path d="M202.649 88.1574C202.287 88.3308 201.977 88.5971 201.75 88.9292C201.589 89.2502 201.496 89.601 201.477 89.9596C201.313 91.3286 201.16 92.7886 201.768 94.0265C201.802 94.1141 201.861 94.1892 201.939 94.2413C202.017 94.2669 202.102 94.2669 202.18 94.2413C202.323 94.1999 202.456 94.1277 202.568 94.0295C202.681 93.9314 202.771 93.8098 202.831 93.6733C202.949 93.3988 203.024 93.1078 203.054 92.8104C203.243 91.6126 203.418 90.4111 203.618 89.2096C203.385 90.0228 203.305 90.8721 203.381 91.7145C203.461 92.5621 203.821 93.359 204.404 93.9792C204.5 94.0916 204.627 94.1738 204.768 94.2158C205.132 94.285 205.395 93.91 205.54 93.5787C206.109 92.2939 206.366 90.8929 206.29 89.4899C206.12 90.8679 206.374 92.2651 207.018 93.4949C207.077 93.6153 207.157 93.7239 207.255 93.8153C207.451 93.9402 207.683 93.9966 207.914 93.9755C208.135 94.0054 208.359 93.9564 208.548 93.8372C208.673 93.7193 208.762 93.5675 208.803 93.4003C209.2 92.2013 209.352 90.9346 209.25 89.6756C209.356 91.0398 209.632 92.3853 210.073 93.6806C210.131 93.9315 210.266 94.1581 210.459 94.3287C210.651 94.4336 210.875 94.4634 211.088 94.4122C211.3 94.3611 211.486 94.2327 211.61 94.052C211.847 93.6813 211.973 93.2505 211.974 92.8104C212.028 92.2352 211.788 91.6381 211.952 91.0846C213.721 85.1026 203.804 87.4947 202.649 88.1574Z" fill="url(#paint27_linear)"/>
<path d="M245.182 128.105C244.582 128.378 243.868 128.874 244.036 129.511C244.167 130.006 244.786 130.206 245.292 130.13C245.798 130.053 246.26 129.795 246.748 129.707C246.844 129.679 246.946 129.674 247.044 129.691C247.143 129.709 247.236 129.749 247.316 129.809C247.4 129.906 247.455 130.025 247.473 130.152C247.64 131.036 247.167 131.91 246.621 132.627C246.075 133.345 245.434 134.022 245.164 134.881C245.812 135.209 246.595 134.812 247.116 134.306C247.636 133.8 248.059 133.163 248.711 132.849L247.036 135.835C246.883 136.104 246.737 136.465 246.937 136.702C247.207 137.018 247.713 136.731 248.004 136.436C248.868 135.558 249.646 134.6 250.327 133.574C249.817 134.6 249.497 135.711 249.384 136.851C249.89 136.905 250.251 136.399 250.498 135.955L251.955 133.308C251.94 134.127 251.74 134.931 251.368 135.66C252.129 135.496 252.493 134.652 252.741 133.916C253.425 131.892 254.117 129.809 254.026 127.672C254.008 127.206 253.917 126.678 253.524 126.423C253.269 126.288 252.981 126.227 252.694 126.249C249.846 126.208 247.771 126.926 245.182 128.105Z" fill="url(#paint28_linear)"/>
<path d="M248.598 123.46C248.648 123.14 248.79 122.842 249.005 122.6C249.321 122.364 249.704 122.236 250.098 122.236L252.887 121.916C253.582 121.836 254.438 121.828 254.816 122.422C254.987 122.759 255.046 123.142 254.984 123.514C254.918 124.458 254.743 125.392 254.463 126.296C254.387 126.533 249.763 127.002 249.344 126.897C247.753 126.471 248.215 125.014 248.598 123.46Z" fill="#282E38"/>
<path d="M248.598 123.46C248.648 123.14 248.79 122.842 249.005 122.6C249.321 122.364 249.704 122.236 250.098 122.236L252.887 121.916C253.582 121.836 254.438 121.828 254.816 122.422C254.987 122.759 255.046 123.142 254.984 123.514C254.918 124.458 254.743 125.392 254.463 126.296C254.387 126.533 249.763 127.002 249.344 126.897C247.753 126.471 248.215 125.014 248.598 123.46Z" fill="url(#paint29_linear)"/>
<path d="M220.071 164.649L211.573 193.252H219.256L235.254 164.649H220.071Z" fill="#282E38"/>
<path d="M257.42 164.649L265.921 193.252H258.239L242.237 164.649H257.42Z" fill="#282E38"/>
<path d="M218.837 199.285C218.109 199.471 217.337 199.649 216.62 199.434C215.902 199.22 215.305 198.43 215.578 197.701C213.845 198.156 212.24 199.027 210.506 199.482C207.667 200.232 204.681 199.846 201.768 199.438C202.02 198.439 202.476 197.503 203.107 196.688C203.738 195.874 204.53 195.199 205.435 194.705C207.255 193.729 209.37 193.554 211.424 193.401L215.367 193.107C216.157 193.048 217.865 192.568 218.553 193.128C219.241 193.689 219.296 199.158 218.837 199.285Z" fill="#282E38"/>
<path d="M266.15 199.285C265.422 199.471 264.647 199.649 263.929 199.434C263.212 199.22 262.604 198.43 262.874 197.701C261.137 198.156 259.531 199.027 257.798 199.482C254.958 200.232 251.973 199.846 249.06 199.438C249.312 198.439 249.768 197.502 250.4 196.687C251.031 195.873 251.825 195.198 252.73 194.705C254.551 193.729 256.662 193.554 258.716 193.401L262.637 193.11C263.431 193.052 265.138 192.571 265.823 193.132C266.507 193.693 266.58 199.158 266.15 199.285Z" fill="#282E38"/>
<path d="M220.071 164.649L211.573 193.252H219.256L235.254 164.649H220.071Z" fill="url(#paint30_linear)"/>
<path d="M257.42 164.649L265.921 193.252H258.239L242.237 164.649H257.42Z" fill="url(#paint31_linear)"/>
<path d="M218.837 199.285C218.109 199.471 217.337 199.649 216.62 199.434C215.902 199.22 215.305 198.43 215.578 197.701C213.845 198.156 212.24 199.027 210.506 199.482C207.667 200.232 204.681 199.846 201.768 199.438C202.02 198.439 202.476 197.503 203.107 196.688C203.738 195.874 204.53 195.199 205.435 194.705C207.255 193.729 209.37 193.554 211.424 193.401L215.367 193.107C216.157 193.048 217.865 192.568 218.553 193.128C219.241 193.689 219.296 199.158 218.837 199.285Z" fill="url(#paint32_linear)"/>
<path d="M266.15 199.285C265.422 199.471 264.647 199.649 263.929 199.434C263.212 199.22 262.604 198.43 262.874 197.701C261.137 198.156 259.531 199.027 257.798 199.482C254.958 200.232 251.973 199.846 249.06 199.438C249.312 198.439 249.768 197.502 250.4 196.687C251.031 195.873 251.825 195.198 252.73 194.705C254.551 193.729 256.662 193.554 258.716 193.401L262.637 193.11C263.431 193.052 265.138 192.571 265.823 193.132C266.507 193.693 266.58 199.158 266.15 199.285Z" fill="url(#paint33_linear)"/>
</g>
<defs>
<linearGradient id="paint0_linear" x1="143.011" y1="88.2192" x2="269.453" y2="-98.9017" gradientUnits="userSpaceOnUse">
<stop offset="0.03" stop-color="white"/>
<stop offset="0.09" stop-color="white" stop-opacity="0.84"/>
<stop offset="0.18" stop-color="white" stop-opacity="0.64"/>
<stop offset="0.28" stop-color="white" stop-opacity="0.47"/>
<stop offset="0.37" stop-color="white" stop-opacity="0.33"/>
<stop offset="0.47" stop-color="white" stop-opacity="0.21"/>
<stop offset="0.58" stop-color="white" stop-opacity="0.12"/>
<stop offset="0.69" stop-color="white" stop-opacity="0.05"/>
<stop offset="0.82" stop-color="white" stop-opacity="0.01"/>
<stop offset="0.98" stop-color="white" stop-opacity="0"/>
</linearGradient>
<linearGradient id="paint1_linear" x1="250.429" y1="-82.5103" x2="111.681" y2="124.13" gradientUnits="userSpaceOnUse">
<stop offset="0.01"/>
<stop offset="0.1" stop-opacity="0.77"/>
<stop offset="0.97" stop-opacity="0"/>
</linearGradient>
<linearGradient id="paint2_linear" x1="131181" y1="54746.2" x2="-33108.8" y2="60849.4" gradientUnits="userSpaceOnUse">
<stop offset="0.01"/>
<stop offset="0.1" stop-opacity="0.77"/>
<stop offset="0.97" stop-opacity="0"/>
</linearGradient>
<linearGradient id="paint3_linear" x1="77346.7" y1="-2664.85" x2="64145.8" y2="-53389.4" gradientUnits="userSpaceOnUse">
<stop offset="0.01"/>
<stop offset="0.1" stop-opacity="0.77"/>
<stop offset="0.97" stop-opacity="0"/>
</linearGradient>
<linearGradient id="paint4_linear" x1="53202.5" y1="8535.88" x2="53134.6" y2="18715.8" gradientUnits="userSpaceOnUse">
<stop offset="0.03" stop-color="white"/>
<stop offset="0.09" stop-color="white" stop-opacity="0.84"/>
<stop offset="0.18" stop-color="white" stop-opacity="0.64"/>
<stop offset="0.28" stop-color="white" stop-opacity="0.47"/>
<stop offset="0.37" stop-color="white" stop-opacity="0.33"/>
<stop offset="0.47" stop-color="white" stop-opacity="0.21"/>
<stop offset="0.58" stop-color="white" stop-opacity="0.12"/>
<stop offset="0.69" stop-color="white" stop-opacity="0.05"/>
<stop offset="0.82" stop-color="white" stop-opacity="0.01"/>
<stop offset="0.98" stop-color="white" stop-opacity="0"/>
</linearGradient>
<linearGradient id="paint5_linear" x1="108.641" y1="46.6255" x2="84.2943" y2="48.4278" gradientUnits="userSpaceOnUse">
<stop offset="0.01" stop-color="white"/>
<stop offset="0.97" stop-color="white" stop-opacity="0"/>
</linearGradient>
<linearGradient id="paint6_linear" x1="854.531" y1="8902.63" x2="700.801" y2="8903.62" gradientUnits="userSpaceOnUse">
<stop offset="0.01" stop-color="white"/>
<stop offset="0.97" stop-color="white" stop-opacity="0"/>
</linearGradient>
<linearGradient id="paint7_linear" x1="936.117" y1="8902.63" x2="782.144" y2="8903.63" gradientUnits="userSpaceOnUse">
<stop offset="0.01" stop-color="white"/>
<stop offset="0.97" stop-color="white" stop-opacity="0"/>
</linearGradient>
<linearGradient id="paint8_linear" x1="1015.1" y1="8902.63" x2="861.372" y2="8903.62" gradientUnits="userSpaceOnUse">
<stop offset="0.01" stop-color="white"/>
<stop offset="0.97" stop-color="white" stop-opacity="0"/>
</linearGradient>
<linearGradient id="paint9_linear" x1="1095.39" y1="8902.63" x2="941.66" y2="8903.62" gradientUnits="userSpaceOnUse">
<stop offset="0.01" stop-color="white"/>
<stop offset="0.97" stop-color="white" stop-opacity="0"/>
</linearGradient>
<linearGradient id="paint10_linear" x1="1175.68" y1="8902.63" x2="1021.95" y2="8903.62" gradientUnits="userSpaceOnUse">
<stop offset="0.01" stop-color="white"/>
<stop offset="0.97" stop-color="white" stop-opacity="0"/>
</linearGradient>
<linearGradient id="paint11_linear" x1="1255.96" y1="8902.63" x2="1102.23" y2="8903.62" gradientUnits="userSpaceOnUse">
<stop offset="0.01" stop-color="white"/>
<stop offset="0.97" stop-color="white" stop-opacity="0"/>
</linearGradient>
<linearGradient id="paint12_linear" x1="1336.23" y1="8902.63" x2="1182.5" y2="8903.62" gradientUnits="userSpaceOnUse">
<stop offset="0.01" stop-color="white"/>
<stop offset="0.97" stop-color="white" stop-opacity="0"/>
</linearGradient>
<linearGradient id="paint13_linear" x1="23286.5" y1="6902.62" x2="23282.7" y2="6115.27" gradientUnits="userSpaceOnUse">
<stop offset="0.01"/>
<stop offset="0.1" stop-opacity="0.77"/>
<stop offset="0.97" stop-opacity="0"/>
</linearGradient>
<linearGradient id="paint14_linear" x1="240.682" y1="44.9507" x2="260.729" y2="44.9507" gradientUnits="userSpaceOnUse">
<stop stop-color="#ECC4D7"/>
<stop offset="0.42" stop-color="#EFD4D1"/>
<stop offset="1" stop-color="#F2EAC9"/>
</linearGradient>
<linearGradient id="paint15_linear" x1="26844.4" y1="31696.8" x2="27113.9" y2="22668.2" gradientUnits="userSpaceOnUse">
<stop offset="0.01"/>
<stop offset="0.1" stop-opacity="0.77"/>
<stop offset="0.97" stop-opacity="0"/>
</linearGradient>
<linearGradient id="paint16_linear" x1="83636.9" y1="27671.2" x2="80329" y2="61382.7" gradientUnits="userSpaceOnUse">
<stop offset="0.03" stop-color="white"/>
<stop offset="0.09" stop-color="white" stop-opacity="0.84"/>
<stop offset="0.18" stop-color="white" stop-opacity="0.64"/>
<stop offset="0.28" stop-color="white" stop-opacity="0.47"/>
<stop offset="0.37" stop-color="white" stop-opacity="0.33"/>
<stop offset="0.47" stop-color="white" stop-opacity="0.21"/>
<stop offset="0.58" stop-color="white" stop-opacity="0.12"/>
<stop offset="0.69" stop-color="white" stop-opacity="0.05"/>
<stop offset="0.82" stop-color="white" stop-opacity="0.01"/>
<stop offset="0.98" stop-color="white" stop-opacity="0"/>
</linearGradient>
<linearGradient id="paint17_linear" x1="13334.9" y1="14515.2" x2="14372.2" y2="14515.2" gradientUnits="userSpaceOnUse">
<stop offset="0.01"/>
<stop offset="0.1" stop-opacity="0.77"/>
<stop offset="0.97" stop-opacity="0"/>
</linearGradient>
<linearGradient id="paint18_linear" x1="7000.03" y1="1024.19" x2="7045.43" y2="1591.45" gradientUnits="userSpaceOnUse">
<stop offset="0.01"/>
<stop offset="0.1" stop-opacity="0.77"/>
<stop offset="0.97" stop-opacity="0"/>
</linearGradient>
<linearGradient id="paint19_linear" x1="1468.5" y1="-22412.8" x2="3494.9" y2="4756.54" gradientUnits="userSpaceOnUse">
<stop offset="0.01" stop-color="white"/>
<stop offset="0.97" stop-color="white" stop-opacity="0"/>
</linearGradient>
<linearGradient id="paint20_linear" x1="1549.01" y1="-21028.8" x2="3575.39" y2="6140.59" gradientUnits="userSpaceOnUse">
<stop offset="0.01" stop-color="white"/>
<stop offset="0.97" stop-color="white" stop-opacity="0"/>
</linearGradient>
<linearGradient id="paint21_linear" x1="1629.3" y1="-21033.5" x2="3655.68" y2="6135.34" gradientUnits="userSpaceOnUse">
<stop offset="0.01" stop-color="white"/>
<stop offset="0.97" stop-color="white" stop-opacity="0"/>
</linearGradient>
<linearGradient id="paint22_linear" x1="1709.56" y1="-21038.8" x2="3735.97" y2="6130.08" gradientUnits="userSpaceOnUse">
<stop offset="0.01" stop-color="white"/>
<stop offset="0.97" stop-color="white" stop-opacity="0"/>
</linearGradient>
<linearGradient id="paint23_linear" x1="1784.94" y1="-21044" x2="3817.71" y2="6123.88" gradientUnits="userSpaceOnUse">
<stop offset="0.01" stop-color="white"/>
<stop offset="0.97" stop-color="white" stop-opacity="0"/>
</linearGradient>
<linearGradient id="paint24_linear" x1="1864.98" y1="-21049.3" x2="3885.88" y2="6120.4" gradientUnits="userSpaceOnUse">
<stop offset="0.01" stop-color="white"/>
<stop offset="0.97" stop-color="white" stop-opacity="0"/>
</linearGradient>
<linearGradient id="paint25_linear" x1="1945.07" y1="-21054.5" x2="3965.94" y2="6115.68" gradientUnits="userSpaceOnUse">
<stop offset="0.01" stop-color="white"/>
<stop offset="0.97" stop-color="white" stop-opacity="0"/>
</linearGradient>
<linearGradient id="paint26_linear" x1="2030.7" y1="-21059.8" x2="4057.09" y2="6109.61" gradientUnits="userSpaceOnUse">
<stop offset="0.01" stop-color="white"/>
<stop offset="0.97" stop-color="white" stop-opacity="0"/>
</linearGradient>
<linearGradient id="paint27_linear" x1="6191.41" y1="3442.46" x2="6513.55" y2="3442.46" gradientUnits="userSpaceOnUse">
<stop stop-color="#ECC4D7"/>
<stop offset="0.42" stop-color="#EFD4D1"/>
<stop offset="1" stop-color="#F2EAC9"/>
</linearGradient>
<linearGradient id="paint28_linear" x1="6961.99" y1="6183.58" x2="7239.24" y2="6183.58" gradientUnits="userSpaceOnUse">
<stop stop-color="#ECC4D7"/>
<stop offset="0.42" stop-color="#EFD4D1"/>
<stop offset="1" stop-color="#F2EAC9"/>
</linearGradient>
<linearGradient id="paint29_linear" x1="5011.61" y1="1641.67" x2="4958.59" y2="1893.89" gradientUnits="userSpaceOnUse">
<stop offset="0.01"/>
<stop offset="0.1" stop-opacity="0.77"/>
<stop offset="0.97" stop-opacity="0"/>
</linearGradient>
<linearGradient id="paint30_linear" x1="15305" y1="17746.3" x2="12615.9" y2="24675.6" gradientUnits="userSpaceOnUse">
<stop offset="0.01"/>
<stop offset="0.1" stop-opacity="0.77"/>
<stop offset="0.97" stop-opacity="0"/>
</linearGradient>
<linearGradient id="paint31_linear" x1="16288.9" y1="17321.6" x2="18315.9" y2="24884.5" gradientUnits="userSpaceOnUse">
<stop offset="0.01"/>
<stop offset="0.1" stop-opacity="0.77"/>
<stop offset="0.97" stop-opacity="0"/>
</linearGradient>
<linearGradient id="paint32_linear" x1="10214.7" y1="4986.31" x2="10227.7" y2="6356.1" gradientUnits="userSpaceOnUse">
<stop offset="0.01"/>
<stop offset="0.1" stop-opacity="0.77"/>
<stop offset="0.97" stop-opacity="0"/>
</linearGradient>
<linearGradient id="paint33_linear" x1="12510.5" y1="4962.38" x2="12523.5" y2="6331.46" gradientUnits="userSpaceOnUse">
<stop offset="0.01"/>
<stop offset="0.1" stop-opacity="0.77"/>
<stop offset="0.97" stop-opacity="0"/>
</linearGradient>
<clipPath id="clip0">
<rect width="300" height="207.157" fill="white"/>
</clipPath>
</defs>
</svg>
